<svg id="svg" version="1.1" xmlns="http://www.w3.org/2000/svg" xmlns:xlink="http://www.w3.org/1999/xlink" width="400" height="400" viewBox="0, 0, 400,400"><g id="svgg"><path id="path0" d="M206.000 40.137 C 206.000 40.433,209.644 42.489,209.833 42.300 C 209.927 42.206,209.103 41.639,208.002 41.040 C 206.901 40.440,206.000 40.034,206.000 40.137 M235.288 57.992 C 235.560 58.428,236.052 58.888,236.382 59.014 C 236.712 59.141,236.549 58.784,236.021 58.222 C 234.869 56.997,234.617 56.917,235.288 57.992 M287.400 101.448 C 284.036 101.783,280.826 102.434,279.735 103.003 C 279.111 103.329,278.394 103.596,278.143 103.598 C 277.892 103.599,276.812 104.375,275.743 105.322 C 274.646 106.294,273.018 107.271,272.005 107.566 C 270.159 108.104,267.600 110.356,267.600 111.443 C 267.600 111.765,266.760 112.388,265.734 112.828 C 263.658 113.718,263.065 114.321,262.160 116.464 C 261.791 117.339,261.187 118.017,260.659 118.149 C 259.211 118.513,257.394 120.483,256.805 122.328 C 256.437 123.482,255.890 124.243,255.158 124.621 C 252.757 125.863,251.134 130.382,250.578 137.373 C 250.325 140.547,250.145 141.153,248.970 142.789 C 247.411 144.959,246.800 148.591,246.800 155.690 L 246.800 160.000 238.444 160.000 C 220.299 160.000,219.019 161.093,218.522 177.000 L 218.309 183.800 216.742 185.265 L 215.175 186.731 216.378 186.995 C 217.039 187.140,217.793 187.128,218.052 186.968 C 218.348 186.785,218.417 186.849,218.238 187.138 C 218.081 187.392,218.154 187.600,218.400 187.600 C 218.646 187.600,218.736 187.780,218.600 188.000 C 218.464 188.220,218.633 188.400,218.976 188.400 C 219.319 188.400,219.600 188.550,219.600 188.732 C 219.600 188.915,220.047 189.304,220.593 189.596 C 221.140 189.889,221.688 190.446,221.811 190.835 C 222.241 192.190,225.171 194.695,226.898 195.183 C 229.507 195.922,250.658 196.221,256.800 195.607 C 267.515 194.535,274.431 196.236,277.387 200.670 C 278.387 202.172,279.970 204.516,280.903 205.880 C 283.588 209.804,285.672 213.040,287.400 215.968 C 288.280 217.460,289.733 219.742,290.628 221.040 C 291.523 222.338,292.765 224.300,293.386 225.400 C 294.008 226.500,295.218 228.300,296.075 229.400 C 300.579 235.179,304.000 241.018,304.000 242.926 C 304.000 246.614,302.101 247.194,290.000 247.200 C 277.413 247.206,275.488 247.900,274.435 252.811 C 273.869 255.448,273.839 303.801,274.400 308.236 C 274.620 309.976,274.849 320.490,274.907 331.600 C 275.011 351.260,275.037 351.849,275.867 353.640 C 276.336 354.652,276.720 356.125,276.720 356.913 C 276.720 357.702,276.839 358.539,276.984 358.773 C 277.129 359.008,277.095 359.200,276.909 359.200 C 276.378 359.200,276.393 360.792,276.925 360.865 C 277.186 360.901,276.410 361.052,275.200 361.200 L 273.000 361.470 275.800 361.600 L 278.600 361.730 276.400 362.000 C 275.190 362.148,292.745 362.299,315.410 362.335 C 364.525 362.413,362.973 362.527,369.017 358.384 C 369.907 357.774,371.437 357.060,372.417 356.796 C 375.227 356.040,376.294 355.324,377.386 353.461 C 378.146 352.164,378.780 351.612,379.901 351.274 C 382.440 350.509,387.522 345.184,388.815 341.935 C 389.176 341.026,390.034 339.979,390.897 339.392 C 393.371 337.712,394.252 334.881,394.770 326.955 C 395.028 323.013,395.260 321.803,396.014 320.460 C 396.525 319.552,396.840 318.707,396.715 318.582 C 396.590 318.456,396.244 318.904,395.946 319.577 C 395.307 321.021,394.589 321.158,394.252 319.900 C 393.897 318.574,393.944 318.325,394.500 318.606 C 394.775 318.745,394.730 318.621,394.400 318.330 C 393.665 317.681,393.623 311.526,394.351 311.283 C 394.656 311.181,394.825 312.264,394.879 314.667 L 394.959 318.200 395.099 315.205 C 395.243 312.123,394.995 310.233,394.488 310.544 C 394.330 310.641,394.185 310.074,394.167 309.285 L 394.134 307.849 395.467 309.391 C 397.001 311.165,397.244 310.766,395.866 308.735 C 394.982 307.432,394.917 306.888,394.662 298.579 C 394.061 279.081,392.538 269.600,390.005 269.600 C 389.846 269.600,389.592 264.965,389.441 259.300 C 388.913 239.521,387.833 230.771,385.569 227.919 L 384.393 226.439 384.006 214.973 C 383.399 196.994,382.929 192.089,381.607 189.916 C 380.848 188.668,380.826 188.660,380.501 189.540 C 380.186 190.390,380.120 190.351,379.257 188.816 C 377.877 186.360,378.239 184.873,379.701 186.993 C 380.306 187.869,380.800 188.316,380.800 187.986 C 380.800 187.656,380.350 186.723,379.800 185.914 C 378.844 184.507,378.800 184.181,378.800 178.474 C 378.800 161.630,377.607 160.439,360.400 160.109 L 350.600 159.922 350.591 154.461 C 350.580 147.916,349.966 144.850,348.198 142.513 C 347.042 140.985,346.899 140.476,346.674 137.113 C 346.354 132.320,344.720 127.603,342.687 125.600 C 341.905 124.830,340.956 123.390,340.578 122.400 C 339.827 120.433,338.254 118.662,336.868 118.222 C 336.363 118.061,335.572 117.128,335.023 116.045 C 333.906 113.842,333.526 113.488,331.502 112.771 C 330.678 112.479,329.897 111.905,329.766 111.494 C 329.265 109.914,327.212 108.107,325.315 107.576 C 324.197 107.263,322.868 106.494,322.076 105.703 C 320.541 104.168,317.324 102.634,314.285 101.987 C 312.266 101.558,290.651 101.124,287.400 101.448 M306.786 128.729 C 307.921 129.864,311.436 131.919,313.091 132.415 C 314.281 132.771,314.879 133.225,315.209 134.023 C 315.813 135.479,317.539 137.316,318.827 137.873 C 320.194 138.463,321.217 145.439,321.207 154.103 L 321.200 160.007 298.510 159.903 L 275.820 159.800 275.924 154.800 C 276.117 145.527,277.313 137.600,278.518 137.600 C 279.257 137.600,280.902 135.932,281.784 134.288 C 282.336 133.259,282.927 132.751,283.784 132.570 C 285.379 132.233,287.801 130.939,289.843 129.332 C 291.265 128.214,291.859 128.019,294.243 127.893 C 299.359 127.622,306.130 128.073,306.786 128.729 M201.819 159.570 C 201.696 159.769,201.821 160.023,202.098 160.134 C 202.401 160.256,202.322 160.349,201.900 160.368 C 201.515 160.386,201.200 160.220,201.200 160.000 C 201.200 159.780,201.001 159.600,200.757 159.600 C 200.514 159.600,200.417 159.867,200.542 160.194 C 200.676 160.543,200.447 160.961,199.985 161.208 C 199.147 161.657,198.921 162.400,199.624 162.400 C 199.857 162.400,199.937 162.222,199.803 162.005 C 199.663 161.778,199.823 161.711,200.179 161.847 C 201.042 162.178,200.962 162.358,199.745 162.821 C 198.107 163.444,198.915 163.708,200.860 163.185 C 201.817 162.928,203.320 162.182,204.200 161.528 L 205.800 160.337 204.600 160.467 C 203.940 160.539,203.248 160.778,203.062 160.999 C 202.859 161.241,202.799 161.161,202.912 160.798 C 203.127 160.109,202.158 159.021,201.819 159.570 M174.800 160.378 L 173.000 160.635 174.800 161.048 L 176.600 161.462 174.497 161.769 C 172.735 162.026,172.168 161.942,170.997 161.251 C 170.229 160.798,169.600 160.580,169.600 160.768 C 169.600 161.415,172.272 162.374,175.783 162.986 C 180.193 163.755,180.525 163.740,178.845 162.844 C 177.605 162.184,177.562 162.103,178.345 161.898 C 178.816 161.775,179.100 161.838,178.977 162.037 C 178.854 162.237,178.943 162.400,179.176 162.400 C 180.063 162.400,179.546 161.578,178.300 161.005 C 177.585 160.677,177.405 160.509,177.900 160.631 C 178.395 160.754,178.800 160.700,178.800 160.512 C 178.800 160.092,177.189 160.038,174.800 160.378 M344.156 199.734 C 347.119 201.676,348.187 208.982,346.098 213.027 C 340.725 223.436,324.649 219.541,324.672 207.836 C 324.682 203.225,326.459 199.886,329.284 199.174 C 331.931 198.506,342.913 198.919,344.156 199.734 M30.511 202.100 C 29.275 203.699,29.438 204.081,30.725 202.600 C 31.203 202.050,31.438 201.600,31.246 201.600 C 31.055 201.600,30.724 201.825,30.511 202.100 M27.069 205.900 C 25.357 207.670,24.400 208.894,24.400 209.315 C 24.400 209.531,24.790 209.189,25.267 208.554 C 25.744 207.919,26.679 206.815,27.346 206.100 C 28.813 204.525,28.570 204.349,27.069 205.900 M20.300 217.779 C 19.695 218.537,19.204 219.302,19.209 219.479 C 19.219 219.829,20.578 218.225,21.225 217.100 C 21.849 216.015,21.506 216.267,20.300 217.779 M396.937 314.600 C 396.939 316.360,397.009 317.030,397.093 316.089 C 397.178 315.149,397.177 313.709,397.091 312.889 C 397.005 312.070,396.936 312.840,396.937 314.600 M384.762 346.921 C 384.004 347.658,383.137 348.179,382.836 348.079 C 382.523 347.974,382.401 348.078,382.551 348.320 C 382.695 348.554,382.640 348.852,382.427 348.983 C 381.835 349.349,382.292 347.583,382.988 346.813 C 383.326 346.440,383.511 346.015,383.401 345.868 C 383.290 345.720,383.314 345.684,383.453 345.786 C 383.591 345.888,384.079 345.710,384.536 345.390 C 386.082 344.307,386.254 345.472,384.762 346.921 M368.158 356.468 C 367.964 356.783,368.087 356.852,368.534 356.681 C 369.729 356.222,369.267 357.545,368.004 358.198 C 367.346 358.538,366.692 358.797,366.549 358.774 C 366.406 358.751,366.142 358.971,365.961 359.262 C 365.720 359.652,365.515 359.675,365.188 359.348 C 364.861 359.021,365.013 358.691,365.758 358.105 C 366.316 357.665,366.649 357.183,366.499 357.032 C 366.348 356.881,366.511 356.868,366.861 357.002 C 367.241 357.148,367.593 356.995,367.736 356.623 C 367.867 356.280,368.081 356.000,368.211 356.000 C 368.341 356.000,368.317 356.211,368.158 356.468 M263.170 362.952 C 263.679 363.179,264.321 363.179,264.830 362.952 C 265.504 362.651,265.348 362.582,264.000 362.582 C 262.652 362.582,262.496 362.651,263.170 362.952 M266.400 363.647 C 265.050 364.338,264.512 364.779,265.007 364.787 C 265.743 364.799,268.800 363.024,268.800 362.586 C 268.800 362.484,268.755 362.427,268.700 362.460 C 268.645 362.492,267.610 363.027,266.400 363.647 M259.200 362.965 C 259.200 363.269,262.438 364.800,263.079 364.800 C 263.439 364.800,263.658 364.725,263.567 364.633 C 263.295 364.362,259.200 362.798,259.200 362.965 M250.749 364.125 C 251.138 364.603,251.911 364.800,253.400 364.800 C 254.889 364.800,255.662 364.603,256.051 364.125 C 256.541 363.523,256.514 363.489,255.800 363.808 C 255.360 364.005,254.280 364.167,253.400 364.167 C 252.520 364.167,251.440 364.005,251.000 363.808 C 250.286 363.489,250.259 363.523,250.749 364.125 " stroke="none" fill="#298dc0" fill-rule="evenodd"></path><path id="path1" d="M188.600 70.306 C 187.085 71.420,187.003 71.962,186.792 82.361 C 186.481 97.718,186.907 97.284,171.800 97.627 C 159.828 97.899,158.305 98.318,159.530 101.006 C 160.453 103.033,161.862 103.336,171.600 103.607 C 186.502 104.021,186.799 104.320,186.802 118.926 C 186.805 130.319,187.364 132.637,189.916 131.827 C 191.616 131.287,191.785 130.274,191.997 119.400 C 192.219 108.041,192.366 107.293,194.694 105.712 C 197.250 103.977,197.988 103.850,207.000 103.609 C 216.363 103.358,217.960 103.037,219.123 101.175 C 220.810 98.473,218.853 97.900,207.000 97.628 C 191.760 97.279,192.292 97.813,192.000 82.560 C 191.787 71.443,191.491 70.012,189.400 70.012 C 189.180 70.012,188.820 70.144,188.600 70.306 M47.300 187.491 C 48.125 187.578,49.475 187.578,50.300 187.491 C 51.125 187.405,50.450 187.334,48.800 187.334 C 47.150 187.334,46.475 187.405,47.300 187.491 M123.100 187.495 C 124.255 187.576,126.145 187.576,127.300 187.495 C 128.455 187.414,127.510 187.348,125.200 187.348 C 122.890 187.348,121.945 187.414,123.100 187.495 M41.721 188.432 C 40.149 189.210,38.376 191.405,38.418 192.523 C 38.427 192.785,38.791 192.327,39.225 191.504 C 40.164 189.726,41.420 188.834,43.939 188.155 C 45.515 187.731,45.616 187.650,44.600 187.627 C 43.940 187.613,42.644 187.975,41.721 188.432 M36.400 194.420 L 35.400 195.222 36.500 194.747 C 37.105 194.485,37.600 194.120,37.600 193.936 C 37.600 193.479,37.545 193.502,36.400 194.420 M34.181 196.837 C 33.829 197.518,33.612 198.145,33.699 198.232 C 33.786 198.319,34.156 197.762,34.522 196.995 C 35.344 195.270,35.059 195.138,34.181 196.837 M327.510 199.985 C 323.546 203.103,323.738 211.605,327.867 215.733 C 336.829 224.696,351.580 214.239,346.286 202.675 C 344.677 199.162,343.531 198.716,339.800 200.150 C 337.517 201.028,333.780 200.955,331.656 199.991 C 329.472 199.000,328.763 198.999,327.510 199.985 M26.155 208.612 C 25.790 209.169,25.564 209.698,25.653 209.787 C 25.742 209.876,26.118 209.420,26.489 208.774 C 27.314 207.336,27.069 207.217,26.155 208.612 M17.996 222.100 C 17.560 222.815,17.202 223.565,17.201 223.767 C 17.200 224.223,17.256 224.148,18.314 222.300 C 19.366 220.463,19.097 220.294,17.996 222.100 M8.431 237.036 C 7.754 237.605,7.214 238.280,7.232 238.536 C 7.252 238.840,7.334 238.824,7.468 238.489 C 7.581 238.209,8.329 237.534,9.130 236.989 C 9.931 236.445,10.378 236.000,10.124 236.000 C 9.869 236.000,9.108 236.466,8.431 237.036 M6.181 241.416 C 5.252 248.851,7.328 254.857,10.800 254.782 C 11.130 254.775,10.860 254.530,10.200 254.239 C 6.920 252.791,5.211 245.940,6.772 240.497 C 6.977 239.784,6.990 239.200,6.801 239.200 C 6.612 239.200,6.333 240.197,6.181 241.416 M20.300 255.499 C 23.435 255.567,28.565 255.567,31.700 255.499 C 34.835 255.432,32.270 255.376,26.000 255.376 C 19.730 255.376,17.165 255.432,20.300 255.499 M395.072 310.200 C 395.253 310.640,395.400 312.738,395.400 314.863 C 395.400 316.988,395.532 318.518,395.694 318.263 C 396.258 317.374,396.006 311.455,395.358 310.400 C 395.021 309.850,394.892 309.760,395.072 310.200 M274.100 361.891 C 274.925 361.978,276.275 361.978,277.100 361.891 C 277.925 361.805,277.250 361.734,275.600 361.734 C 273.950 361.734,273.275 361.805,274.100 361.891 M251.204 363.005 C 251.837 363.768,254.414 363.775,255.424 363.017 C 256.123 362.492,256.056 362.478,254.743 362.871 C 253.681 363.190,252.936 363.186,251.998 362.859 C 250.875 362.468,250.774 362.486,251.204 363.005 M261.776 363.016 C 262.204 363.337,263.204 363.600,264.000 363.600 C 264.796 363.600,265.796 363.337,266.224 363.016 C 266.926 362.488,266.857 362.470,265.500 362.835 C 264.493 363.105,263.507 363.105,262.500 362.835 C 261.143 362.470,261.074 362.488,261.776 363.016 " stroke="none" fill="#fcf8f8" fill-rule="evenodd"></path><path id="path2" d="M187.700 38.291 C 188.525 38.378,189.875 38.378,190.700 38.291 C 191.525 38.205,190.850 38.134,189.200 38.134 C 187.550 38.134,186.875 38.205,187.700 38.291 M178.827 38.775 C 178.469 39.001,179.220 39.054,180.827 38.915 C 182.242 38.792,183.475 38.626,183.567 38.546 C 183.941 38.219,179.356 38.440,178.827 38.775 M195.233 38.546 C 195.325 38.626,196.570 38.787,198.000 38.902 C 199.527 39.026,200.270 38.978,199.800 38.785 C 199.026 38.467,194.896 38.251,195.233 38.546 M174.466 39.950 C 174.044 40.219,174.076 40.344,174.624 40.554 C 175.004 40.700,175.409 40.725,175.524 40.609 C 175.639 40.494,175.478 40.397,175.167 40.394 C 174.700 40.389,174.706 40.319,175.200 40.000 C 175.530 39.787,175.620 39.612,175.400 39.612 C 175.180 39.612,174.760 39.764,174.466 39.950 M203.333 40.200 C 203.333 40.879,203.565 40.937,204.334 40.450 C 204.759 40.180,204.732 40.060,204.201 39.856 C 203.318 39.517,203.333 39.511,203.333 40.200 M241.385 67.078 C 241.452 67.475,241.729 67.748,242.002 67.684 C 242.308 67.612,242.405 67.811,242.254 68.204 C 242.119 68.555,242.174 68.740,242.376 68.615 C 242.577 68.490,242.862 68.765,243.008 69.224 C 243.154 69.684,243.360 69.973,243.466 69.867 C 243.731 69.602,242.587 67.453,241.858 66.849 C 241.367 66.441,241.285 66.481,241.385 67.078 M246.494 77.317 C 246.875 77.626,247.055 78.025,246.894 78.204 C 246.732 78.382,246.856 78.380,247.168 78.199 C 247.577 77.961,247.672 78.036,247.506 78.468 C 247.372 78.817,247.501 79.067,247.817 79.067 C 248.608 79.067,247.805 77.726,246.691 77.187 C 245.890 76.799,245.870 76.812,246.494 77.317 M249.068 82.200 C 249.371 84.177,249.602 84.514,249.594 82.967 C 249.591 82.325,249.416 81.530,249.205 81.200 C 248.945 80.791,248.901 81.110,249.068 82.200 M249.701 86.600 C 249.705 87.480,249.787 87.793,249.883 87.295 C 249.979 86.798,249.975 86.078,249.875 85.695 C 249.775 85.313,249.696 85.720,249.701 86.600 M128.501 90.600 C 128.505 91.480,128.587 91.793,128.683 91.295 C 128.779 90.798,128.775 90.078,128.675 89.695 C 128.575 89.313,128.496 89.720,128.501 90.600 M250.128 92.800 C 250.128 94.230,250.201 94.815,250.289 94.100 C 250.378 93.385,250.378 92.215,250.289 91.500 C 250.201 90.785,250.128 91.370,250.128 92.800 M250.144 108.800 C 250.144 110.890,250.212 111.745,250.294 110.700 C 250.376 109.655,250.376 107.945,250.294 106.900 C 250.212 105.855,250.144 106.710,250.144 108.800 M128.509 110.000 C 128.509 110.990,128.587 111.395,128.682 110.900 C 128.778 110.405,128.778 109.595,128.682 109.100 C 128.587 108.605,128.509 109.010,128.509 110.000 M232.779 144.639 C 232.473 145.210,231.709 146.110,231.081 146.639 C 230.453 147.167,230.087 147.594,230.269 147.587 C 231.095 147.553,233.932 144.198,233.499 143.766 C 233.409 143.675,233.085 144.068,232.779 144.639 M146.621 146.434 C 146.895 146.877,149.216 148.118,149.409 147.924 C 149.484 147.850,148.835 147.400,147.968 146.925 C 147.100 146.450,146.494 146.229,146.621 146.434 M151.430 150.000 C 152.194 151.585,153.878 152.904,153.856 151.900 C 153.841 151.246,152.400 149.837,152.400 150.476 C 152.400 150.739,152.117 150.604,151.770 150.176 C 151.424 149.749,151.271 149.670,151.430 150.000 M164.400 158.200 C 164.950 158.514,165.670 158.771,166.000 158.770 C 166.330 158.769,165.994 158.506,165.254 158.184 C 163.551 157.445,163.094 157.453,164.400 158.200 M213.800 158.214 C 213.140 158.517,212.881 158.772,213.224 158.782 C 213.566 158.792,214.196 158.536,214.624 158.213 C 215.572 157.496,215.369 157.496,213.800 158.214 M184.707 163.490 C 185.426 163.579,186.506 163.577,187.107 163.486 C 187.708 163.395,187.120 163.322,185.800 163.324 C 184.480 163.326,183.988 163.401,184.707 163.490 M191.907 163.490 C 192.626 163.579,193.706 163.577,194.307 163.486 C 194.908 163.395,194.320 163.322,193.000 163.324 C 191.680 163.326,191.188 163.401,191.907 163.490 M89.100 187.100 C 112.475 187.157,150.725 187.157,174.100 187.100 C 197.475 187.043,178.350 186.996,131.600 186.996 C 84.850 186.996,65.725 187.043,89.100 187.100 M69.330 187.900 C 78.972 187.960,94.632 187.960,104.130 187.900 C 113.629 187.840,105.740 187.791,86.600 187.791 C 67.460 187.791,59.689 187.840,69.330 187.900 M172.130 187.900 C 210.380 187.992,215.331 188.073,215.878 188.621 C 216.606 189.348,216.921 189.182,216.567 188.257 C 216.334 187.652,212.840 187.608,172.657 187.698 L 129.000 187.796 172.130 187.900 M217.592 188.210 C 217.314 188.545,217.202 188.935,217.343 189.076 C 217.484 189.218,217.600 189.103,217.600 188.822 C 217.600 188.541,217.945 188.736,218.366 189.256 C 218.787 189.775,219.271 190.061,219.441 189.891 C 219.612 189.721,219.355 189.303,218.869 188.963 C 218.384 188.623,218.090 188.178,218.217 187.973 C 218.586 187.376,218.145 187.543,217.592 188.210 M46.700 188.282 C 47.195 188.378,47.600 188.634,47.600 188.851 C 47.600 189.069,47.799 189.124,48.043 188.974 C 48.636 188.607,47.671 187.996,46.600 188.061 C 45.910 188.102,45.924 188.133,46.700 188.282 M39.834 191.057 C 39.626 191.598,39.686 191.627,40.173 191.222 C 40.499 190.952,40.981 190.864,41.244 191.027 C 41.548 191.215,41.619 191.154,41.438 190.862 C 41.022 190.188,40.125 190.297,39.834 191.057 M37.997 192.500 C 37.995 192.775,37.266 193.416,36.377 193.924 C 34.658 194.905,33.198 196.877,33.210 198.200 C 33.215 198.697,33.511 198.354,33.992 197.294 C 34.418 196.356,34.999 195.636,35.283 195.694 C 35.567 195.752,35.759 195.587,35.709 195.327 C 35.659 195.067,36.244 194.467,37.009 193.994 C 38.164 193.280,38.929 192.000,38.200 192.000 C 38.090 192.000,37.999 192.225,37.997 192.500 M255.962 196.450 C 258.091 198.174,263.448 198.444,265.969 196.954 C 267.899 195.815,267.579 195.733,261.124 195.721 C 255.151 195.710,255.064 195.722,255.962 196.450 M123.757 197.935 C 119.805 201.909,118.283 203.710,116.772 206.200 C 115.838 207.740,114.423 209.900,113.628 211.000 C 112.833 212.100,111.827 213.686,111.392 214.524 C 110.956 215.363,109.929 216.862,109.109 217.856 C 108.290 218.851,106.947 220.775,106.125 222.132 C 104.106 225.469,100.697 230.645,99.232 232.600 C 98.572 233.480,96.952 235.910,95.631 238.000 C 92.893 242.331,91.818 243.580,89.502 245.113 L 87.860 246.200 69.030 246.407 C 49.914 246.616,49.519 246.649,47.400 248.192 C 46.740 248.673,45.204 249.609,43.986 250.272 C 42.769 250.936,41.257 251.956,40.628 252.539 C 39.998 253.123,39.329 253.600,39.142 253.600 C 38.954 253.600,38.779 254.095,38.753 254.700 L 38.705 255.800 38.435 254.600 L 38.165 253.400 37.887 255.000 C 37.409 257.751,37.546 350.208,38.033 353.167 C 38.766 357.632,39.851 359.474,42.595 360.917 C 44.193 361.757,44.399 361.762,92.400 362.031 C 160.917 362.415,249.387 362.454,249.033 362.100 C 248.868 361.935,203.343 361.702,147.867 361.583 C 43.521 361.358,41.774 361.329,42.334 359.845 C 42.537 359.308,41.462 358.776,41.161 359.264 C 40.980 359.555,40.816 359.549,40.626 359.243 C 40.476 358.999,40.554 358.800,40.800 358.800 C 41.046 358.800,41.136 358.620,41.000 358.400 C 40.864 358.180,40.943 358.000,41.176 358.000 C 41.409 358.000,41.600 358.180,41.600 358.400 C 41.600 358.620,41.805 358.800,42.056 358.800 C 42.307 358.800,42.757 359.115,43.057 359.500 C 43.524 360.099,43.569 360.105,43.374 359.540 C 43.248 359.178,43.338 358.762,43.573 358.617 C 43.820 358.464,44.000 358.683,44.000 359.136 C 44.000 360.066,47.339 361.053,49.041 360.626 C 49.705 360.459,49.976 360.515,49.810 360.784 C 49.632 361.072,80.234 361.200,148.953 361.200 C 210.448 361.200,248.441 361.057,248.585 360.825 C 248.917 360.287,250.498 360.674,250.900 361.392 C 251.087 361.727,251.456 361.997,251.720 361.994 C 252.027 361.990,251.992 361.856,251.626 361.624 C 251.150 361.323,251.141 361.153,251.575 360.630 C 252.133 359.958,253.005 359.745,252.615 360.376 C 252.487 360.582,252.747 360.724,253.191 360.691 C 253.636 360.657,254.000 360.460,254.000 360.253 C 254.000 360.046,254.372 360.212,254.826 360.624 C 255.608 361.332,255.614 361.388,254.926 361.682 C 254.254 361.970,254.258 361.986,254.972 361.897 C 255.396 361.843,255.698 361.627,255.642 361.416 C 255.466 360.748,256.970 360.480,257.422 361.098 C 257.671 361.438,258.247 361.600,258.822 361.492 C 259.758 361.317,259.752 361.307,258.700 361.254 C 258.095 361.225,257.600 361.033,257.600 360.828 C 257.600 360.606,258.077 360.593,258.783 360.795 C 259.433 360.982,260.341 361.036,260.800 360.916 C 261.361 360.769,261.596 360.870,261.517 361.225 C 261.453 361.515,261.670 361.781,262.000 361.815 C 262.393 361.856,262.417 361.817,262.070 361.703 C 261.659 361.569,261.695 361.358,262.232 360.765 C 262.949 359.972,263.835 359.696,263.400 360.400 C 263.264 360.620,263.534 360.800,264.000 360.800 C 264.466 360.800,264.736 360.620,264.600 360.400 C 264.165 359.696,265.051 359.972,265.768 360.765 C 266.425 361.491,266.424 361.540,265.730 361.742 C 265.124 361.918,265.135 361.937,265.800 361.853 C 266.240 361.798,266.559 361.549,266.508 361.301 C 266.378 360.663,267.990 360.230,268.520 360.760 C 268.775 361.015,270.233 361.174,271.980 361.137 C 274.861 361.077,274.908 361.062,273.000 360.800 C 271.900 360.649,271.360 360.472,271.800 360.406 C 272.255 360.338,271.910 360.163,271.000 360.000 C 269.466 359.725,269.499 359.710,271.800 359.617 C 273.215 359.560,273.872 359.414,273.400 359.260 C 272.629 359.009,272.392 358.233,272.833 357.400 C 272.949 357.180,273.023 356.415,272.996 355.700 C 272.970 354.985,273.087 354.400,273.256 354.400 C 273.950 354.400,274.111 350.591,274.214 331.656 C 274.273 320.735,274.329 311.260,274.338 310.600 C 274.348 309.940,274.266 297.181,274.157 282.246 C 274.032 265.173,274.104 254.407,274.352 253.247 C 274.835 250.982,274.483 250.504,271.084 248.805 L 268.692 247.610 215.972 247.609 C 169.294 247.608,163.041 247.537,161.416 246.985 C 158.082 245.853,156.875 244.868,155.126 241.856 C 154.214 240.285,152.723 238.010,151.811 236.800 C 150.900 235.590,149.641 233.700,149.015 232.600 C 148.389 231.500,147.319 229.891,146.638 229.025 C 145.957 228.158,144.590 226.152,143.600 224.565 C 141.230 220.769,137.955 215.841,136.316 213.605 C 135.592 212.617,134.165 210.419,133.145 208.719 C 132.125 207.020,130.716 204.904,130.013 204.017 C 129.311 203.130,128.075 201.201,127.268 199.732 C 125.522 196.554,125.263 196.422,123.757 197.935 M32.587 200.040 C 32.441 200.502,32.473 201.033,32.660 201.219 C 32.847 201.404,33.019 201.026,33.043 200.378 C 33.093 198.988,32.954 198.884,32.587 200.040 M33.087 203.197 C 32.780 203.636,32.409 203.906,32.264 203.797 C 32.119 203.689,32.088 203.718,32.197 203.863 C 32.305 204.008,32.170 204.397,31.897 204.727 C 31.458 205.258,31.506 205.263,32.300 204.768 C 32.795 204.460,33.200 203.970,33.200 203.680 C 33.200 203.390,33.372 203.259,33.583 203.389 C 33.793 203.519,33.852 203.919,33.715 204.278 C 33.560 204.680,33.625 204.832,33.884 204.672 C 34.618 204.218,34.800 202.825,34.089 203.098 C 33.681 203.254,33.568 203.176,33.758 202.868 C 34.250 202.072,33.678 202.353,33.087 203.197 M26.937 209.420 C 26.262 210.456,26.192 210.788,26.617 210.951 C 26.936 211.073,27.081 210.956,26.970 210.666 C 26.866 210.394,27.143 209.783,27.586 209.307 C 28.029 208.831,28.259 208.364,28.096 208.269 C 27.933 208.174,27.412 208.692,26.937 209.420 M23.978 211.242 C 22.663 213.699,21.700 217.115,22.351 217.014 C 22.708 216.959,23.143 217.113,23.317 217.357 C 23.525 217.648,23.611 217.595,23.569 217.200 C 23.455 216.129,23.593 215.548,23.915 215.748 C 24.088 215.855,24.269 215.470,24.317 214.894 C 24.365 214.317,24.628 213.702,24.902 213.529 C 25.256 213.304,25.197 213.210,24.700 213.206 C 24.315 213.203,24.000 213.479,24.000 213.820 C 24.000 214.508,22.823 216.956,22.600 216.733 C 22.295 216.428,23.995 212.206,24.385 212.300 C 24.613 212.355,25.003 212.445,25.250 212.500 C 25.498 212.555,25.787 212.363,25.892 212.073 C 26.014 211.740,25.826 211.592,25.384 211.673 C 24.998 211.743,24.596 211.550,24.490 211.244 C 24.360 210.873,24.466 210.794,24.810 211.006 C 25.147 211.214,25.225 211.165,25.038 210.862 C 24.643 210.222,24.495 210.275,23.978 211.242 M26.244 212.229 C 26.018 212.819,26.589 214.400,27.028 214.400 C 27.138 214.400,27.016 214.004,26.757 213.519 C 26.405 212.863,26.402 212.599,26.743 212.486 C 27.281 212.306,27.361 211.600,26.843 211.600 C 26.646 211.600,26.377 211.883,26.244 212.229 M18.236 221.231 C 17.666 221.908,17.205 222.673,17.212 222.931 C 17.219 223.189,17.423 223.040,17.667 222.600 C 17.910 222.160,18.476 221.395,18.924 220.900 C 19.373 220.405,19.634 220.000,19.505 220.000 C 19.376 220.000,18.805 220.554,18.236 221.231 M20.422 221.316 C 19.905 222.147,19.915 222.164,20.597 221.600 C 20.996 221.270,21.383 221.040,21.457 221.089 C 21.531 221.137,21.998 221.014,22.496 220.814 C 23.148 220.552,23.212 220.444,22.724 220.425 C 22.352 220.411,21.924 220.599,21.774 220.843 C 21.582 221.153,21.421 221.158,21.236 220.859 C 21.076 220.599,20.757 220.778,20.422 221.316 M16.140 225.260 C 12.826 228.286,12.591 228.634,11.645 231.920 C 10.848 234.684,10.501 235.334,9.557 235.822 C 7.673 236.797,5.711 239.200,6.800 239.200 C 7.020 239.200,7.200 238.946,7.200 238.636 C 7.200 237.927,9.451 236.000,10.280 236.000 C 10.808 236.000,10.819 236.101,10.356 236.700 C 9.915 237.270,9.980 237.258,10.707 236.638 C 11.622 235.857,11.916 235.357,11.200 235.800 C 10.664 236.131,10.663 236.137,11.758 232.970 C 13.117 229.039,13.242 228.779,13.642 229.026 C 13.994 229.244,14.158 228.684,14.030 227.700 C 13.994 227.425,14.123 227.200,14.316 227.200 C 14.993 227.200,15.168 227.713,14.754 228.487 C 14.052 229.797,14.592 229.661,15.379 228.328 C 15.784 227.643,15.909 227.209,15.658 227.364 C 15.406 227.520,15.200 227.467,15.200 227.247 C 15.200 226.554,16.074 226.273,16.439 226.849 C 16.713 227.281,16.789 227.287,16.794 226.876 C 16.797 226.583,17.003 226.478,17.262 226.638 C 17.550 226.816,17.615 226.748,17.434 226.455 C 17.275 226.198,16.958 226.102,16.730 226.244 C 16.464 226.408,16.412 226.193,16.584 225.650 C 16.884 224.706,16.814 224.645,16.140 225.260 M5.746 245.400 C 5.747 247.600,5.814 248.449,5.895 247.287 C 5.976 246.124,5.976 244.324,5.893 243.287 C 5.811 242.249,5.745 243.200,5.746 245.400 M6.413 251.486 C 6.363 253.398,10.425 255.671,13.677 255.551 C 14.565 255.518,14.232 255.390,12.663 255.161 C 10.497 254.845,7.600 253.519,7.600 252.844 C 7.600 252.326,6.426 250.984,6.413 251.486 M20.724 255.899 C 23.873 255.967,28.913 255.967,31.924 255.899 C 34.936 255.831,32.360 255.776,26.200 255.776 C 20.040 255.776,17.576 255.832,20.724 255.899 M38.809 350.210 C 39.031 350.479,39.110 350.970,38.982 351.302 C 38.654 352.157,39.953 356.501,40.716 357.100 C 41.094 357.397,41.160 357.600,40.876 357.600 C 40.614 357.600,40.274 357.610,40.120 357.622 C 38.334 357.762,38.242 355.205,38.214 304.400 L 38.187 256.200 38.295 302.961 C 38.367 333.792,38.541 349.888,38.809 350.210 M42.114 355.088 C 42.418 354.972,42.667 355.121,42.667 355.421 C 42.667 355.720,42.515 355.871,42.331 355.757 C 42.146 355.643,41.886 355.831,41.754 356.175 C 41.622 356.519,41.242 356.800,40.908 356.800 C 40.427 356.800,40.400 356.682,40.779 356.226 C 41.137 355.794,41.144 355.421,40.806 354.726 C 40.385 353.859,40.394 353.848,40.959 354.550 C 41.290 354.963,41.810 355.205,42.114 355.088 M44.211 356.018 C 44.353 356.247,44.275 356.669,44.038 356.954 C 43.599 357.484,43.831 358.000,44.509 358.000 C 44.716 358.000,44.793 357.759,44.680 357.464 C 44.567 357.169,44.654 356.674,44.875 356.364 C 45.192 355.917,45.229 355.946,45.050 356.500 C 44.923 356.896,45.028 357.200,45.293 357.200 C 45.642 357.200,45.639 357.321,45.280 357.680 C 45.016 357.944,44.789 358.529,44.775 358.980 C 44.751 359.754,44.729 359.749,44.388 358.900 C 44.189 358.405,43.840 358.000,43.613 358.000 C 43.386 358.000,43.200 357.730,43.200 357.400 C 43.200 357.070,42.908 356.800,42.551 356.800 C 42.015 356.800,41.990 356.906,42.408 357.410 C 42.686 357.745,42.824 358.109,42.714 358.219 C 42.604 358.329,42.305 358.168,42.050 357.860 C 41.459 357.148,41.886 355.981,42.633 356.268 C 42.945 356.388,43.200 356.286,43.200 356.043 C 43.200 355.482,43.870 355.466,44.211 356.018 M268.400 362.000 C 267.969 362.279,268.363 362.388,269.800 362.388 C 270.900 362.388,272.070 362.213,272.400 362.000 C 272.831 361.721,272.437 361.612,271.000 361.612 C 269.900 361.612,268.730 361.787,268.400 362.000 M258.100 362.276 C 258.485 362.376,259.115 362.376,259.500 362.276 C 259.885 362.175,259.570 362.093,258.800 362.093 C 258.030 362.093,257.715 362.175,258.100 362.276 " stroke="none" fill="#f4bc41" fill-rule="evenodd"></path><path id="path3" d="M179.400 38.063 C 176.580 38.379,172.974 39.568,172.400 40.373 C 171.935 41.024,167.749 42.800,166.679 42.800 C 163.130 42.800,158.199 44.874,156.771 46.966 C 156.128 47.908,155.224 48.586,154.093 48.972 C 152.175 49.628,151.841 49.919,150.327 52.250 C 149.687 53.234,148.827 54.007,148.194 54.166 C 146.801 54.515,145.889 55.422,144.842 57.497 C 144.271 58.631,143.546 59.379,142.660 59.749 C 141.132 60.388,139.837 61.889,139.131 63.839 C 138.861 64.588,138.419 65.200,138.150 65.200 C 137.422 65.200,135.200 67.185,135.200 67.836 C 135.200 68.146,135.053 68.400,134.873 68.400 C 134.694 68.400,134.227 70.098,133.836 72.174 C 133.178 75.666,133.025 76.017,131.784 76.867 C 129.298 78.571,128.579 81.533,127.955 92.646 C 126.891 111.587,128.750 124.134,133.450 129.731 C 133.973 130.353,134.400 131.197,134.400 131.607 C 134.400 132.017,134.560 132.452,134.756 132.573 C 134.951 132.694,135.226 133.249,135.366 133.806 C 135.631 134.863,136.530 135.893,137.835 136.635 C 138.256 136.874,139.085 138.017,139.679 139.175 C 140.836 141.433,141.586 142.202,143.262 142.845 C 143.878 143.081,144.536 143.787,144.827 144.526 C 145.556 146.373,146.767 147.595,148.700 148.434 C 149.642 148.843,150.400 149.446,150.400 149.786 C 150.400 150.124,150.551 150.400,150.736 150.400 C 150.920 150.400,151.260 150.805,151.490 151.300 C 151.964 152.321,153.814 153.361,156.268 153.988 C 157.203 154.227,159.138 155.355,160.675 156.557 C 162.805 158.223,163.949 158.815,165.808 159.211 C 167.123 159.491,169.122 160.234,170.249 160.860 C 172.229 161.962,174.711 162.426,174.200 161.600 C 174.064 161.380,173.648 161.199,173.276 161.199 C 171.967 161.196,169.994 159.681,170.297 158.911 C 170.546 158.277,170.591 158.272,170.710 158.860 C 170.932 159.960,172.885 160.483,175.962 160.266 C 177.693 160.144,178.800 160.220,178.800 160.460 C 178.800 160.677,178.395 160.754,177.900 160.631 C 177.405 160.509,177.585 160.677,178.300 161.005 C 179.546 161.578,180.063 162.400,179.176 162.400 C 178.943 162.400,178.854 162.237,178.977 162.037 C 179.100 161.838,178.815 161.776,178.343 161.899 C 175.396 162.670,183.060 164.400,189.419 164.400 C 196.038 164.400,202.708 162.818,200.179 161.847 C 199.823 161.711,199.663 161.778,199.803 162.005 C 199.937 162.222,199.857 162.400,199.624 162.400 C 198.921 162.400,199.147 161.657,199.985 161.208 C 200.447 160.961,200.676 160.543,200.542 160.194 C 200.417 159.867,200.514 159.600,200.757 159.600 C 201.001 159.600,201.200 159.780,201.200 160.000 C 201.200 160.220,201.515 160.386,201.900 160.368 C 202.322 160.349,202.401 160.256,202.098 160.134 C 201.821 160.023,201.696 159.769,201.819 159.570 C 202.158 159.021,203.127 160.109,202.912 160.798 C 202.799 161.160,202.859 161.241,203.062 161.000 C 203.485 160.499,203.599 160.477,208.288 159.991 C 214.084 159.390,217.222 158.118,219.200 155.569 C 219.545 155.125,221.747 154.124,223.000 153.842 C 225.156 153.357,226.657 152.316,227.709 150.574 C 228.437 149.369,229.278 148.626,230.555 148.061 C 231.964 147.438,232.615 146.812,233.483 145.244 C 234.265 143.833,234.916 143.157,235.653 142.992 C 236.900 142.714,238.575 140.951,238.928 139.546 C 239.246 138.279,240.359 136.990,241.429 136.653 C 242.621 136.277,243.811 133.901,244.749 130.026 C 245.198 128.170,245.798 126.520,246.083 126.361 C 249.844 124.248,250.379 121.710,250.667 104.600 C 251.028 83.209,250.068 77.209,246.082 75.952 C 245.798 75.862,245.295 74.441,244.966 72.794 C 244.014 68.035,242.900 66.077,240.750 65.387 C 240.393 65.272,239.785 64.352,239.399 63.342 C 239.013 62.332,237.920 60.672,236.968 59.653 C 236.017 58.634,234.679 57.184,233.996 56.432 C 233.312 55.680,231.967 54.686,231.007 54.223 C 229.864 53.672,228.801 52.703,227.930 51.416 C 226.871 49.851,226.215 49.324,224.707 48.825 C 223.638 48.472,222.514 47.765,222.123 47.200 C 220.402 44.708,217.606 43.542,211.169 42.631 C 210.099 42.479,208.470 41.800,207.247 40.994 C 204.002 38.857,202.890 38.469,198.716 38.019 C 194.164 37.528,183.971 37.551,179.400 38.063 M190.700 38.291 C 189.875 38.378,188.525 38.378,187.700 38.291 C 186.875 38.205,187.550 38.134,189.200 38.134 C 190.850 38.134,191.525 38.205,190.700 38.291 M183.567 38.546 C 183.475 38.626,182.242 38.792,180.827 38.915 C 179.220 39.054,178.469 39.001,178.827 38.775 C 179.356 38.440,183.941 38.219,183.567 38.546 M199.800 38.785 C 200.270 38.978,199.527 39.026,198.000 38.902 C 196.570 38.787,195.325 38.626,195.233 38.546 C 194.896 38.251,199.026 38.467,199.800 38.785 M175.200 40.000 C 174.706 40.319,174.700 40.389,175.167 40.394 C 175.478 40.397,175.639 40.494,175.524 40.609 C 175.409 40.725,175.004 40.700,174.624 40.554 C 173.914 40.281,174.465 39.612,175.400 39.612 C 175.620 39.612,175.530 39.787,175.200 40.000 M204.201 39.856 C 204.732 40.060,204.759 40.180,204.334 40.450 C 203.565 40.937,203.333 40.879,203.333 40.200 C 203.333 39.511,203.318 39.517,204.201 39.856 M173.668 41.541 C 173.199 41.948,172.913 42.380,173.034 42.501 C 173.155 42.621,173.016 42.710,172.727 42.697 C 171.428 42.640,170.772 42.831,171.000 43.200 C 171.136 43.420,171.042 43.600,170.790 43.600 C 169.899 43.600,170.679 42.588,172.228 41.732 C 174.188 40.650,174.787 40.571,173.668 41.541 M207.900 42.491 C 208.511 42.988,208.553 43.600,207.976 43.600 C 207.743 43.600,207.682 43.392,207.839 43.137 C 208.035 42.820,207.853 42.745,207.262 42.900 C 206.703 43.046,206.493 42.973,206.665 42.695 C 206.840 42.412,206.672 42.364,206.178 42.553 C 205.763 42.712,205.546 42.720,205.695 42.571 C 205.844 42.423,205.569 41.964,205.083 41.553 C 204.081 40.704,206.830 41.619,207.900 42.491 M235.398 59.936 C 235.288 60.045,235.504 60.472,235.877 60.885 C 236.514 61.589,236.514 61.619,235.878 61.374 C 235.256 61.136,235.030 60.676,235.153 59.900 C 235.179 59.735,235.026 59.600,234.814 59.600 C 234.602 59.600,234.217 59.195,233.960 58.700 C 233.500 57.817,233.511 57.818,234.544 58.768 C 235.123 59.301,235.507 59.826,235.398 59.936 M191.928 65.801 C 192.583 66.352,193.721 67.742,194.459 68.891 L 195.800 70.980 196.042 80.590 C 196.408 95.074,195.607 94.266,209.809 94.469 C 223.337 94.661,225.338 95.594,224.652 101.388 C 224.060 106.388,222.641 106.951,210.000 107.203 C 195.416 107.493,196.298 106.649,196.004 120.600 C 195.786 130.942,195.739 131.236,193.934 133.562 C 191.241 137.031,188.853 137.249,185.830 134.300 C 182.955 131.496,182.806 130.794,182.796 120.000 C 182.784 106.860,183.471 107.488,168.800 107.200 C 155.706 106.943,154.221 106.226,154.206 100.145 C 154.194 95.205,155.446 94.721,169.000 94.426 C 183.332 94.115,182.456 94.980,182.789 80.800 L 183.009 71.400 184.183 69.272 C 186.553 64.978,189.422 63.692,191.928 65.801 M243.056 68.508 C 243.388 69.150,243.572 69.761,243.466 69.867 C 243.360 69.973,243.154 69.684,243.008 69.224 C 242.862 68.765,242.577 68.490,242.376 68.615 C 242.174 68.740,242.119 68.555,242.254 68.204 C 242.405 67.811,242.308 67.612,242.002 67.684 C 241.729 67.748,241.452 67.475,241.385 67.078 C 241.215 66.063,242.250 66.949,243.056 68.508 M247.969 78.343 C 248.254 78.875,248.214 79.067,247.817 79.067 C 247.501 79.067,247.372 78.817,247.506 78.468 C 247.672 78.036,247.577 77.961,247.168 78.199 C 246.856 78.380,246.732 78.382,246.894 78.204 C 247.055 78.025,246.875 77.626,246.494 77.317 C 245.870 76.812,245.890 76.799,246.691 77.187 C 247.181 77.424,247.756 77.944,247.969 78.343 M249.594 82.967 C 249.602 84.514,249.371 84.177,249.068 82.200 C 248.901 81.110,248.945 80.791,249.205 81.200 C 249.416 81.530,249.591 82.325,249.594 82.967 M249.883 87.295 C 249.787 87.793,249.705 87.480,249.701 86.600 C 249.696 85.720,249.775 85.313,249.875 85.695 C 249.975 86.078,249.979 86.798,249.883 87.295 M128.683 91.295 C 128.587 91.793,128.505 91.480,128.501 90.600 C 128.496 89.720,128.575 89.313,128.675 89.695 C 128.775 90.078,128.779 90.798,128.683 91.295 M250.289 94.100 C 250.201 94.815,250.128 94.230,250.128 92.800 C 250.128 91.370,250.201 90.785,250.289 91.500 C 250.378 92.215,250.378 93.385,250.289 94.100 M250.294 110.700 C 250.212 111.745,250.144 110.890,250.144 108.800 C 250.144 106.710,250.212 105.855,250.294 106.900 C 250.376 107.945,250.376 109.655,250.294 110.700 M128.682 110.900 C 128.587 111.395,128.509 110.990,128.509 110.000 C 128.509 109.010,128.587 108.605,128.682 109.100 C 128.778 109.595,128.778 110.405,128.682 110.900 M133.020 126.038 C 133.358 126.692,133.804 127.121,134.012 126.992 C 134.221 126.864,134.284 127.038,134.153 127.379 C 133.998 127.782,134.141 128.000,134.557 128.000 C 134.911 128.000,135.200 128.164,135.200 128.365 C 135.200 128.780,134.442 128.729,133.694 128.262 C 133.222 127.967,131.600 125.124,131.600 124.592 C 131.600 124.063,132.442 124.921,133.020 126.038 M232.932 145.065 C 232.138 146.296,230.798 147.565,230.269 147.587 C 230.087 147.594,230.453 147.167,231.081 146.639 C 231.709 146.110,232.473 145.210,232.779 144.639 C 233.085 144.068,233.409 143.675,233.499 143.766 C 233.590 143.856,233.335 144.441,232.932 145.065 M149.409 147.924 C 149.216 148.118,146.895 146.877,146.621 146.434 C 146.494 146.229,147.100 146.450,147.968 146.925 C 148.835 147.400,149.484 147.850,149.409 147.924 M152.400 150.476 C 152.400 149.837,153.841 151.246,153.856 151.900 C 153.878 152.904,152.194 151.585,151.430 150.000 C 151.271 149.670,151.424 149.749,151.770 150.176 C 152.117 150.604,152.400 150.739,152.400 150.476 M160.896 154.141 C 161.133 153.994,161.208 154.063,161.064 154.296 C 160.811 154.706,161.873 155.400,162.530 155.254 C 162.711 155.213,162.745 155.365,162.605 155.591 C 162.434 155.869,162.067 155.855,161.476 155.548 C 160.041 154.804,159.593 154.335,159.878 153.874 C 160.065 153.572,160.195 153.586,160.307 153.922 C 160.396 154.188,160.661 154.286,160.896 154.141 M218.981 154.430 C 218.536 155.151,216.456 156.015,216.193 155.589 C 216.054 155.364,216.089 155.213,216.270 155.254 C 216.927 155.400,217.989 154.706,217.736 154.296 C 217.584 154.051,217.669 153.995,217.938 154.162 C 218.192 154.319,218.400 154.246,218.400 154.000 C 218.400 153.754,218.583 153.666,218.807 153.804 C 219.030 153.942,219.109 154.224,218.981 154.430 M165.254 158.184 C 165.994 158.506,166.330 158.769,166.000 158.770 C 165.424 158.772,163.134 157.643,163.654 157.614 C 163.794 157.606,164.514 157.863,165.254 158.184 M214.624 158.213 C 214.196 158.536,213.566 158.792,213.224 158.782 C 212.881 158.772,213.140 158.517,213.800 158.214 C 215.369 157.496,215.572 157.496,214.624 158.213 M187.107 163.486 C 186.506 163.577,185.426 163.579,184.707 163.490 C 183.988 163.401,184.480 163.326,185.800 163.324 C 187.120 163.322,187.708 163.395,187.107 163.486 M194.307 163.486 C 193.706 163.577,192.626 163.579,191.907 163.490 C 191.188 163.401,191.680 163.326,193.000 163.324 C 194.320 163.322,194.908 163.395,194.307 163.486 M378.400 186.151 C 378.400 186.454,378.652 186.911,378.961 187.167 C 379.269 187.423,379.639 188.101,379.783 188.674 C 379.974 189.434,380.164 189.596,380.486 189.274 C 380.808 188.952,380.639 188.395,379.858 187.216 C 378.721 185.498,378.400 185.264,378.400 186.151 M173.800 187.200 L 129.400 187.405 172.857 187.503 C 212.410 187.591,216.337 187.658,216.562 188.245 C 216.751 188.738,216.938 188.784,217.352 188.440 C 217.762 188.100,218.016 188.138,218.396 188.595 C 218.969 189.285,219.600 189.393,219.600 188.800 C 219.600 188.580,219.319 188.400,218.976 188.400 C 218.607 188.400,218.469 188.212,218.638 187.938 C 218.828 187.631,218.746 187.586,218.394 187.804 C 218.009 188.042,217.934 187.949,218.119 187.466 C 218.260 187.100,218.336 186.844,218.287 186.897 C 218.239 186.951,198.220 187.087,173.800 187.200 M69.330 187.500 C 78.972 187.560,94.632 187.560,104.130 187.500 C 113.629 187.440,105.740 187.391,86.600 187.391 C 67.460 187.391,59.689 187.440,69.330 187.500 M259.000 195.600 C 260.098 196.072,262.870 196.072,263.600 195.600 C 264.015 195.332,263.276 195.219,261.200 195.234 C 259.157 195.249,258.455 195.366,259.000 195.600 M32.046 200.671 C 32.021 200.931,31.775 201.386,31.500 201.684 C 29.563 203.780,29.473 203.964,30.032 204.692 C 30.330 205.082,30.425 205.276,30.244 205.124 C 30.063 204.972,29.540 205.197,29.082 205.624 C 27.822 206.798,27.326 206.553,28.426 205.300 C 29.030 204.613,28.821 204.726,27.870 205.600 C 24.540 208.663,22.896 213.047,25.625 211.587 C 26.060 211.354,26.621 211.289,26.870 211.443 C 27.148 211.615,27.213 211.545,27.038 211.262 C 26.870 210.990,27.003 210.800,27.362 210.800 C 27.698 210.800,28.165 210.440,28.400 210.000 C 28.690 209.458,28.695 209.200,28.414 209.200 C 28.186 209.200,28.000 209.470,28.000 209.800 C 28.000 210.130,27.850 210.400,27.667 210.400 C 27.015 210.400,26.834 209.884,27.228 209.147 C 27.823 208.036,27.395 208.243,26.605 209.449 C 26.226 210.026,26.116 210.376,26.359 210.226 C 26.601 210.076,26.800 210.115,26.800 210.312 C 26.800 210.510,26.350 210.877,25.800 211.127 C 24.599 211.675,24.608 211.747,25.606 209.682 C 26.094 208.672,26.922 207.753,27.706 207.352 C 29.355 206.507,30.511 205.348,31.364 203.683 C 31.735 202.958,32.474 202.167,33.007 201.924 C 33.924 201.506,34.016 200.800,33.153 200.800 C 32.933 200.800,32.864 200.980,33.000 201.200 C 33.136 201.420,33.070 201.600,32.853 201.600 C 32.636 201.600,32.376 201.285,32.276 200.900 C 32.175 200.515,32.072 200.412,32.046 200.671 M22.946 215.398 C 22.819 215.726,22.537 215.885,22.318 215.749 C 22.082 215.603,22.096 215.832,22.353 216.312 C 22.696 216.953,22.654 217.171,22.148 217.365 C 21.669 217.549,21.577 217.438,21.777 216.917 C 22.092 216.096,22.196 215.987,19.785 219.000 C 18.730 220.320,18.225 221.085,18.664 220.700 C 19.104 220.315,19.606 220.000,19.780 220.000 C 19.955 220.000,19.856 220.315,19.561 220.700 C 19.265 221.085,19.953 220.422,21.090 219.227 C 22.227 218.032,23.068 216.911,22.960 216.735 C 22.852 216.560,22.958 216.053,23.196 215.608 C 23.433 215.164,23.526 214.800,23.402 214.800 C 23.277 214.800,23.072 215.069,22.946 215.398 M37.394 302.400 C 37.394 328.470,37.441 339.135,37.500 326.100 C 37.558 313.065,37.558 291.735,37.500 278.700 C 37.441 265.665,37.394 276.330,37.394 302.400 M38.194 303.400 C 38.194 329.580,38.241 340.231,38.300 327.069 C 38.358 313.907,38.358 292.487,38.300 279.469 C 38.241 266.451,38.194 277.220,38.194 303.400 M394.017 308.082 C 394.007 308.237,394.450 309.028,395.000 309.838 C 396.345 311.820,396.457 317.045,395.199 319.110 C 394.262 320.645,394.234 320.803,394.900 320.790 C 397.204 320.745,397.606 311.846,395.417 309.367 C 394.656 308.505,394.026 307.927,394.017 308.082 M394.035 311.400 C 393.829 312.283,394.070 317.819,394.326 318.082 C 394.477 318.236,394.550 317.246,394.489 315.882 C 394.349 312.779,394.157 310.877,394.035 311.400 M383.750 346.603 C 382.615 347.721,382.307 348.229,382.764 348.229 C 383.635 348.229,386.028 345.878,385.674 345.371 C 385.519 345.148,384.682 345.685,383.750 346.603 M368.349 357.062 C 368.047 357.426,367.208 357.971,366.484 358.274 C 365.728 358.590,365.281 359.008,365.434 359.255 C 365.619 359.554,365.790 359.540,365.995 359.209 C 366.157 358.946,366.406 358.751,366.549 358.774 C 367.185 358.878,369.200 357.522,369.200 356.990 C 369.200 356.232,369.025 356.246,368.349 357.062 M40.227 359.630 C 41.078 360.570,41.156 360.580,41.031 359.733 C 40.978 359.367,40.618 359.020,40.232 358.964 C 39.565 358.866,39.565 358.899,40.227 359.630 M248.634 360.744 C 248.425 361.083,222.709 361.225,148.676 361.298 L 49.000 361.397 149.000 361.600 C 253.179 361.812,249.381 361.784,249.026 362.357 C 248.064 363.915,253.650 364.643,256.875 363.380 L 258.750 362.646 261.412 363.702 L 264.073 364.758 266.233 363.802 C 267.698 363.154,268.324 362.668,268.179 362.290 C 268.012 361.855,268.518 361.713,270.474 361.642 C 273.601 361.529,274.103 361.200,271.147 361.200 C 269.944 361.200,268.744 360.984,268.480 360.720 C 268.158 360.398,268.000 360.384,268.000 360.678 C 268.000 363.308,263.172 364.511,261.179 362.377 C 260.069 361.190,257.600 360.102,257.600 360.801 C 257.600 360.991,258.005 361.224,258.500 361.318 C 259.061 361.425,258.973 361.460,258.266 361.409 C 257.484 361.354,256.781 361.680,255.997 362.464 C 254.186 364.275,252.067 364.082,250.291 361.944 C 249.416 360.891,248.813 360.455,248.634 360.744 M251.353 360.876 C 251.191 361.138,251.271 361.424,251.532 361.511 C 251.792 361.597,251.907 361.828,251.786 362.022 C 251.478 362.521,253.365 362.929,254.424 362.592 C 255.113 362.374,255.185 362.236,254.753 361.962 C 254.322 361.690,254.366 361.611,254.949 361.606 C 255.554 361.601,255.606 361.490,255.222 361.027 C 254.736 360.441,253.096 360.308,253.451 360.883 C 253.559 361.057,253.467 361.200,253.247 361.200 C 253.027 361.200,252.736 361.020,252.600 360.800 C 252.267 360.261,251.712 360.295,251.353 360.876 M262.000 361.000 C 261.588 361.497,261.631 361.601,262.251 361.606 C 262.819 361.611,262.870 361.695,262.462 361.953 C 262.064 362.205,262.195 362.362,262.962 362.555 C 264.319 362.895,266.296 362.434,265.538 361.953 C 265.135 361.698,265.198 361.611,265.786 361.606 C 266.519 361.600,266.527 361.555,265.906 360.934 C 265.348 360.376,265.137 360.354,264.603 360.797 C 264.121 361.198,263.854 361.214,263.503 360.863 C 262.892 360.252,262.599 360.279,262.000 361.000 M69.130 362.300 C 80.202 362.359,98.202 362.359,109.130 362.300 C 120.059 362.241,111.000 362.192,89.000 362.192 C 67.000 362.192,58.059 362.241,69.130 362.300 M259.500 362.276 C 259.115 362.376,258.485 362.376,258.100 362.276 C 257.715 362.175,258.030 362.093,258.800 362.093 C 259.570 362.093,259.885 362.175,259.500 362.276 M272.500 362.276 C 272.885 362.376,273.515 362.376,273.900 362.276 C 274.285 362.175,273.970 362.093,273.200 362.093 C 272.430 362.093,272.115 362.175,272.500 362.276 " stroke="none" fill="#fc7444" fill-rule="evenodd"></path><path id="path4" d="M204.719 41.303 C 204.998 41.639,205.806 42.148,206.513 42.434 C 207.221 42.720,207.932 43.145,208.094 43.377 C 208.289 43.658,208.390 43.634,208.394 43.307 C 208.397 43.035,207.458 42.336,206.306 41.752 C 205.046 41.114,204.414 40.935,204.719 41.303 M172.015 41.936 C 171.260 42.341,170.574 42.926,170.491 43.236 C 170.394 43.594,170.460 43.646,170.670 43.377 C 170.851 43.145,171.585 42.718,172.300 42.429 C 173.015 42.140,173.600 41.745,173.600 41.551 C 173.600 41.086,173.599 41.086,172.015 41.936 M233.960 58.700 C 234.217 59.195,234.612 59.600,234.838 59.600 C 235.063 59.600,235.158 59.744,235.050 59.919 C 234.942 60.095,235.013 60.497,235.209 60.814 C 235.476 61.247,235.548 61.165,235.496 60.484 C 235.459 59.986,234.992 59.178,234.460 58.689 L 233.491 57.800 233.960 58.700 M186.692 65.972 C 185.958 66.617,184.829 68.102,184.183 69.272 L 183.009 71.400 182.789 80.800 C 182.456 94.980,183.332 94.115,169.000 94.426 C 155.446 94.721,154.194 95.205,154.206 100.145 C 154.221 106.226,155.706 106.943,168.800 107.200 C 183.471 107.488,182.784 106.860,182.796 120.000 C 182.806 130.794,182.955 131.496,185.830 134.300 C 188.853 137.249,191.241 137.031,193.934 133.562 C 195.739 131.236,195.786 130.942,196.004 120.600 C 196.298 106.649,195.416 107.493,210.000 107.203 C 222.641 106.951,224.060 106.388,224.652 101.388 C 225.338 95.594,223.337 94.661,209.809 94.469 C 195.607 94.266,196.408 95.074,196.042 80.590 L 195.800 70.980 194.459 68.891 C 191.735 64.648,189.260 63.718,186.692 65.972 M190.200 70.306 C 191.720 71.423,191.797 71.945,192.000 82.560 C 192.292 97.813,191.760 97.279,207.000 97.628 C 218.853 97.900,220.810 98.473,219.123 101.175 C 217.960 103.037,216.363 103.358,207.000 103.609 C 197.988 103.850,197.250 103.977,194.694 105.712 C 192.366 107.293,192.219 108.041,191.997 119.400 C 191.785 130.274,191.616 131.287,189.916 131.827 C 187.364 132.637,186.805 130.319,186.802 118.926 C 186.799 104.320,186.502 104.021,171.600 103.607 C 161.862 103.336,160.453 103.033,159.530 101.006 C 158.305 98.318,159.828 97.899,171.800 97.627 C 186.907 97.284,186.481 97.718,186.792 82.361 C 187.013 71.461,187.319 70.012,189.400 70.012 C 189.620 70.012,189.980 70.144,190.200 70.306 M132.339 125.858 C 133.613 128.319,134.117 128.839,134.800 128.399 C 135.327 128.059,135.324 128.012,134.774 128.006 C 134.429 128.003,133.746 127.285,133.255 126.412 C 132.087 124.334,131.305 123.861,132.339 125.858 M159.843 153.931 C 159.582 154.352,160.104 154.846,161.600 155.594 C 162.590 156.088,162.592 156.086,161.800 155.347 C 161.360 154.936,160.792 154.364,160.538 154.076 C 160.271 153.773,159.978 153.711,159.843 153.931 M217.400 154.913 L 216.200 156.077 217.475 155.442 C 218.837 154.762,219.405 154.151,218.907 153.902 C 218.738 153.817,218.060 154.272,217.400 154.913 M170.292 158.922 C 170.026 159.600,172.538 161.195,173.056 160.677 C 173.149 160.584,172.690 160.286,172.035 160.014 C 171.379 159.743,170.783 159.224,170.710 158.860 C 170.592 158.277,170.543 158.284,170.292 158.922 M378.815 187.840 C 379.253 188.992,380.400 190.753,380.400 190.273 C 380.400 189.845,378.823 186.800,378.602 186.800 C 378.502 186.800,378.598 187.268,378.815 187.840 M47.817 188.262 C 48.224 188.560,48.298 188.816,48.024 188.985 C 47.791 189.129,47.600 189.079,47.600 188.874 C 47.600 188.295,45.154 187.940,44.560 188.433 C 44.271 188.673,43.817 188.734,43.550 188.569 C 43.214 188.361,43.144 188.477,43.323 188.944 C 43.535 189.496,43.450 189.548,42.853 189.228 C 41.673 188.597,40.079 189.864,41.077 190.640 C 41.580 191.031,41.613 191.138,41.186 190.991 C 40.848 190.875,40.173 191.152,39.686 191.606 C 38.709 192.516,38.523 192.990,39.300 192.589 C 39.575 192.447,39.350 192.702,38.800 193.156 C 37.909 193.892,37.955 194.207,38.930 194.037 C 39.111 194.006,39.152 194.154,39.021 194.366 C 38.890 194.577,38.399 194.677,37.929 194.586 C 37.341 194.473,36.670 194.850,35.783 195.790 C 34.570 197.077,33.177 199.908,34.011 199.393 C 34.220 199.264,34.284 199.437,34.154 199.777 C 34.023 200.117,33.755 200.296,33.558 200.174 C 33.361 200.052,33.200 200.143,33.200 200.376 C 33.200 200.609,33.380 200.800,33.600 200.800 C 34.351 200.800,34.002 201.471,33.016 201.920 C 32.132 202.323,30.016 205.600,30.641 205.600 C 30.782 205.600,30.676 205.868,30.404 206.196 C 30.132 206.523,29.772 206.706,29.604 206.602 C 29.028 206.246,26.742 208.200,25.751 209.895 C 24.970 211.232,24.900 211.537,25.421 211.337 C 25.916 211.147,26.042 211.273,25.926 211.842 C 25.833 212.296,25.496 212.553,25.085 212.482 C 24.708 212.418,24.400 212.553,24.400 212.782 C 24.400 213.012,24.569 213.200,24.776 213.200 C 24.983 213.200,24.902 213.682,24.597 214.271 C 24.291 214.861,24.156 215.536,24.297 215.771 C 24.438 216.007,24.245 215.950,23.868 215.643 C 23.261 215.151,23.214 215.170,23.459 215.809 C 23.669 216.358,23.600 216.453,23.168 216.207 C 22.708 215.944,22.695 215.985,23.100 216.421 C 23.697 217.064,23.767 217.750,23.200 217.400 C 22.980 217.264,22.800 217.463,22.800 217.843 C 22.800 218.223,22.678 218.412,22.530 218.263 C 22.225 217.959,20.400 219.539,20.400 220.107 C 20.400 220.591,18.805 222.612,18.784 222.154 C 18.775 221.959,18.497 222.299,18.166 222.909 C 17.835 223.520,17.673 224.195,17.806 224.409 C 17.939 224.624,17.827 224.800,17.557 224.800 C 17.287 224.800,17.184 224.917,17.327 225.060 C 17.470 225.204,17.275 225.577,16.894 225.890 C 16.512 226.203,16.413 226.353,16.672 226.223 C 16.932 226.093,17.275 226.198,17.434 226.455 C 17.615 226.748,17.550 226.816,17.262 226.638 C 16.853 226.385,16.624 226.852,16.748 227.686 C 16.771 227.843,16.507 227.863,16.162 227.730 C 15.655 227.535,15.636 227.423,16.066 227.150 C 16.360 226.964,16.405 226.809,16.167 226.806 C 15.928 226.803,15.598 226.935,15.433 227.100 C 15.268 227.265,14.968 227.400,14.767 227.400 C 14.565 227.400,14.414 227.544,14.432 227.721 C 14.450 227.898,14.161 228.505,13.790 229.071 C 13.419 229.637,13.270 230.213,13.458 230.350 C 13.646 230.488,13.855 230.855,13.923 231.168 C 14.020 231.618,13.926 231.637,13.469 231.257 C 12.847 230.741,12.163 231.693,12.622 232.436 C 12.746 232.636,12.637 232.800,12.381 232.800 C 12.124 232.800,12.018 233.070,12.145 233.400 C 12.271 233.730,12.186 234.000,11.954 234.000 C 11.723 234.000,11.609 234.225,11.702 234.500 C 11.794 234.775,11.584 235.238,11.235 235.530 C 10.740 235.943,10.732 235.994,11.200 235.761 C 11.601 235.561,11.548 235.750,11.038 236.331 C 10.211 237.274,9.774 237.490,10.249 236.721 C 10.411 236.458,9.972 236.651,9.271 237.149 C 7.730 238.247,7.112 239.305,7.469 240.237 C 7.665 240.747,7.595 240.844,7.205 240.603 C 6.807 240.357,6.730 240.490,6.900 241.137 C 7.024 241.612,6.962 242.000,6.763 242.000 C 6.353 242.000,6.269 247.245,6.649 249.144 C 6.785 249.827,7.053 250.291,7.244 250.173 C 7.435 250.055,7.484 250.238,7.353 250.579 C 7.137 251.142,7.586 251.398,8.517 251.242 C 8.692 251.212,8.641 251.550,8.404 251.992 C 7.905 252.925,10.012 254.565,11.300 254.247 C 11.685 254.153,12.000 254.262,12.000 254.490 C 12.000 254.740,12.552 254.815,13.393 254.679 C 14.159 254.554,14.889 254.621,15.016 254.826 C 15.394 255.437,37.194 255.313,37.228 254.700 C 37.244 254.425,37.411 254.560,37.600 255.000 C 37.900 255.697,37.953 255.646,38.019 254.600 L 38.095 253.400 38.400 254.600 L 38.705 255.800 38.753 254.700 C 38.779 254.095,38.954 253.600,39.142 253.600 C 39.329 253.600,39.998 253.123,40.628 252.539 C 41.257 251.956,42.769 250.936,43.986 250.272 C 45.204 249.609,46.740 248.673,47.400 248.192 C 49.519 246.649,49.914 246.616,69.030 246.407 L 87.860 246.200 89.502 245.113 C 91.818 243.580,92.893 242.331,95.631 238.000 C 96.952 235.910,98.572 233.480,99.232 232.600 C 100.697 230.645,104.106 225.469,106.125 222.132 C 106.947 220.775,108.290 218.851,109.109 217.856 C 109.929 216.862,110.956 215.363,111.392 214.524 C 111.827 213.686,112.833 212.100,113.628 211.000 C 114.423 209.900,115.838 207.740,116.772 206.200 C 118.876 202.733,124.510 196.640,125.357 196.916 C 125.601 196.995,126.461 198.262,127.268 199.732 C 128.075 201.201,129.311 203.130,130.013 204.017 C 130.716 204.904,132.125 207.020,133.145 208.719 C 134.165 210.419,135.592 212.617,136.316 213.605 C 137.955 215.841,141.230 220.769,143.600 224.565 C 144.590 226.152,145.957 228.158,146.638 229.025 C 147.319 229.891,148.389 231.500,149.015 232.600 C 149.641 233.700,150.900 235.590,151.811 236.800 C 152.723 238.010,154.214 240.285,155.126 241.856 C 156.875 244.868,158.082 245.853,161.416 246.985 C 163.041 247.537,169.294 247.608,215.972 247.609 L 268.692 247.610 271.107 248.816 C 272.435 249.480,273.744 250.291,274.015 250.619 C 274.440 251.130,274.714 250.994,275.955 249.652 C 278.024 247.416,279.230 247.205,290.000 247.200 C 302.101 247.194,304.000 246.614,304.000 242.926 C 304.000 241.018,300.579 235.179,296.075 229.400 C 295.218 228.300,294.008 226.500,293.386 225.400 C 292.765 224.300,291.523 222.338,290.628 221.040 C 289.733 219.742,288.280 217.460,287.400 215.968 C 285.672 213.040,283.588 209.804,280.903 205.880 C 279.970 204.516,278.387 202.172,277.387 200.670 C 274.593 196.479,269.505 194.751,266.132 196.847 C 263.983 198.184,258.967 198.222,256.600 196.920 C 255.064 196.075,254.471 196.032,241.800 195.858 C 226.003 195.642,223.107 194.918,221.822 190.870 C 221.481 189.794,219.977 188.999,219.538 189.663 C 219.259 190.086,219.016 190.000,218.392 189.256 C 217.956 188.736,217.600 188.501,217.600 188.733 C 217.600 189.244,215.959 188.981,215.608 188.413 C 215.440 188.142,187.551 187.973,131.271 187.904 C 67.657 187.825,47.339 187.912,47.817 188.262 M330.400 199.167 C 330.400 200.660,337.777 201.258,340.500 199.986 C 342.530 199.037,341.631 198.800,336.000 198.800 C 332.870 198.800,330.400 198.962,330.400 199.167 M33.758 202.868 C 33.568 203.176,33.681 203.254,34.089 203.098 C 34.800 202.825,34.618 204.218,33.884 204.672 C 33.625 204.832,33.560 204.680,33.715 204.278 C 33.852 203.919,33.793 203.519,33.583 203.389 C 33.372 203.259,33.200 203.390,33.200 203.680 C 33.200 203.970,32.795 204.460,32.300 204.768 C 31.476 205.281,31.446 205.272,31.949 204.664 C 32.251 204.299,32.341 203.996,32.149 203.991 C 31.957 203.986,32.250 203.630,32.800 203.200 C 33.963 202.290,34.156 202.223,33.758 202.868 M29.200 209.051 C 29.200 209.540,27.690 211.156,27.453 210.920 C 27.314 210.781,27.200 211.042,27.200 211.500 C 27.200 211.958,26.994 212.402,26.743 212.486 C 26.402 212.599,26.405 212.863,26.757 213.519 C 27.016 214.004,27.138 214.400,27.028 214.400 C 26.435 214.400,26.001 212.745,26.400 212.000 C 26.690 211.458,26.695 211.200,26.414 211.200 C 25.768 211.200,25.924 210.431,26.827 209.162 C 27.577 208.108,29.200 208.032,29.200 209.051 M27.433 209.457 C 27.061 210.427,27.352 210.483,28.117 209.588 C 28.642 208.976,28.669 208.800,28.239 208.800 C 27.935 208.800,27.572 209.096,27.433 209.457 M21.900 220.032 C 21.515 220.256,21.200 220.647,21.200 220.900 C 21.200 221.236,21.330 221.230,21.680 220.880 C 21.944 220.616,22.439 220.411,22.780 220.425 C 23.282 220.446,22.022 221.199,21.200 221.371 C 21.090 221.394,20.740 221.577,20.421 221.778 C 20.103 221.980,20.250 221.572,20.749 220.872 C 21.247 220.173,21.867 219.605,22.127 219.612 C 22.387 219.619,22.285 219.808,21.900 220.032 M15.041 228.863 C 14.314 229.900,14.179 229.560,14.832 228.339 C 15.070 227.895,15.359 227.625,15.473 227.740 C 15.588 227.854,15.393 228.360,15.041 228.863 M394.295 309.957 C 394.174 310.421,394.193 310.729,394.337 310.640 C 394.482 310.551,394.600 312.525,394.600 315.026 C 394.600 317.526,394.467 319.263,394.303 318.886 C 394.047 318.293,394.020 318.304,394.103 318.972 C 394.459 321.815,395.508 318.774,395.560 314.746 C 395.602 311.527,394.739 308.260,394.295 309.957 M274.276 312.899 C 274.097 313.943,273.986 323.213,274.027 333.499 C 274.098 350.873,273.964 354.400,273.231 354.400 C 273.076 354.400,272.970 354.985,272.996 355.700 C 273.023 356.415,272.949 357.180,272.833 357.400 C 272.392 358.233,272.629 359.009,273.400 359.260 C 273.876 359.415,273.227 359.564,271.800 359.627 C 269.764 359.718,269.643 359.761,271.000 359.911 C 272.297 360.055,272.449 360.150,271.800 360.416 C 271.130 360.691,271.202 360.748,272.244 360.772 C 272.928 360.787,274.368 360.905,275.444 361.033 C 276.520 361.161,277.202 361.116,276.961 360.933 C 276.436 360.535,276.382 359.200,276.890 359.200 C 277.087 359.200,277.129 359.008,276.984 358.773 C 276.839 358.539,276.720 357.702,276.720 356.913 C 276.720 356.125,276.337 354.652,275.870 353.640 C 275.048 351.862,275.015 351.189,274.905 333.600 C 274.842 323.590,274.747 314.410,274.695 313.200 L 274.600 311.000 274.276 312.899 M395.092 316.512 C 395.008 317.440,394.941 316.580,394.942 314.600 C 394.943 312.620,395.012 311.860,395.095 312.912 C 395.177 313.964,395.176 315.584,395.092 316.512 M383.414 345.947 C 383.512 346.046,383.393 346.368,383.148 346.663 C 382.441 347.514,383.393 347.292,384.180 346.422 C 384.857 345.674,384.852 345.646,384.060 345.705 C 383.606 345.740,383.315 345.848,383.414 345.947 M40.776 354.671 C 41.008 355.150,41.089 355.825,40.956 356.171 C 40.823 356.517,40.894 356.800,41.114 356.800 C 41.334 356.800,41.622 356.519,41.754 356.175 C 41.886 355.831,42.146 355.643,42.331 355.757 C 42.515 355.871,42.667 355.720,42.667 355.421 C 42.667 355.121,42.418 354.972,42.114 355.088 C 41.810 355.205,41.290 354.963,40.959 354.550 C 40.387 353.839,40.378 353.846,40.776 354.671 M43.200 356.043 C 43.200 356.286,42.945 356.388,42.633 356.268 C 41.886 355.981,41.459 357.148,42.050 357.860 C 42.305 358.168,42.604 358.329,42.714 358.219 C 42.824 358.109,42.686 357.745,42.408 357.410 C 41.990 356.906,42.015 356.800,42.551 356.800 C 42.908 356.800,43.200 357.070,43.200 357.400 C 43.200 357.730,43.386 358.000,43.613 358.000 C 43.840 358.000,44.189 358.405,44.388 358.900 C 44.729 359.749,44.751 359.754,44.775 358.980 C 44.789 358.529,45.016 357.944,45.280 357.680 C 45.639 357.321,45.642 357.200,45.293 357.200 C 45.028 357.200,44.923 356.896,45.050 356.500 C 45.229 355.946,45.192 355.917,44.875 356.364 C 44.654 356.674,44.567 357.169,44.680 357.464 C 44.793 357.759,44.716 358.000,44.509 358.000 C 43.831 358.000,43.599 357.484,44.038 356.954 C 44.491 356.408,44.216 355.600,43.576 355.600 C 43.369 355.600,43.200 355.799,43.200 356.043 M367.801 356.801 C 368.042 357.191,367.907 357.269,367.276 357.104 C 366.809 356.982,366.466 357.020,366.514 357.188 C 366.561 357.356,366.150 357.883,365.600 358.359 L 364.600 359.224 366.200 358.374 C 368.264 357.278,368.580 356.959,367.973 356.583 C 367.632 356.372,367.578 356.440,367.801 356.801 M40.933 358.600 C 40.933 358.930,41.017 359.116,41.119 359.014 C 41.222 358.912,41.642 359.008,42.053 359.228 C 42.559 359.499,42.800 359.494,42.800 359.214 C 42.800 358.986,42.530 358.800,42.200 358.800 C 41.870 358.800,41.600 358.620,41.600 358.400 C 41.600 358.180,41.450 358.000,41.267 358.000 C 41.083 358.000,40.933 358.270,40.933 358.600 M43.544 358.585 C 42.995 359.144,43.707 360.399,44.547 360.354 C 45.185 360.319,45.230 360.262,44.725 360.129 C 44.353 360.031,43.993 359.585,43.925 359.137 C 43.856 358.690,43.685 358.442,43.544 358.585 M249.600 360.813 C 249.600 361.331,251.092 362.800,251.619 362.800 C 252.124 362.800,250.808 360.919,250.100 360.630 C 249.825 360.517,249.600 360.599,249.600 360.813 M256.200 360.800 C 255.760 360.989,255.563 361.156,255.762 361.172 C 255.961 361.187,255.798 361.560,255.400 362.000 C 254.989 362.454,254.876 362.800,255.138 362.800 C 255.705 362.800,257.200 361.350,257.200 360.800 C 257.200 360.580,257.155 360.413,257.100 360.428 C 257.045 360.444,256.640 360.611,256.200 360.800 M266.800 360.800 C 266.470 361.013,266.363 361.191,266.562 361.194 C 266.761 361.197,266.598 361.560,266.200 362.000 C 265.802 362.440,265.639 362.797,265.838 362.794 C 266.440 362.784,267.054 362.249,267.554 361.300 C 268.057 360.344,267.785 360.164,266.800 360.800 M260.400 361.171 C 260.400 361.682,261.560 362.800,262.091 362.800 C 262.329 362.800,262.226 362.470,261.861 362.068 C 261.497 361.665,261.319 361.215,261.466 361.068 C 261.613 360.920,261.433 360.800,261.067 360.800 C 260.700 360.800,260.400 360.967,260.400 361.171 " stroke="none" fill="#fcd484" fill-rule="evenodd"></path></g></svg>