<?xml version="1.0" standalone="no"?>
<!DOCTYPE svg PUBLIC "-//W3C//DTD SVG 20010904//EN"
 "http://www.w3.org/TR/2001/REC-SVG-20010904/DTD/svg10.dtd">
<svg version="1.0" xmlns="http://www.w3.org/2000/svg"
 width="986.000000pt" height="1024.000000pt" viewBox="0 0 986.000000 1024.000000"
 preserveAspectRatio="xMidYMid meet">

<g transform="translate(0.000000,1024.000000) scale(0.100000,-0.100000)"
fill="#000000" stroke="none">
<path d="M0 5120 l0 -5120 4930 0 4930 0 0 5120 0 5120 -4930 0 -4930 0 0
-5120z m8235 2840 l0 -1865 -2257 -3 -2258 -2 0 1870 0 1870 2258 -2 2257 -3
0 -1865z m1170 -2282 c37 -17 40 -46 17 -171 -22 -116 -69 -373 -102 -557 -10
-58 -33 -179 -49 -270 -17 -91 -42 -230 -56 -310 -14 -80 -34 -190 -45 -245
-10 -55 -33 -179 -50 -275 -17 -96 -39 -220 -50 -275 -10 -55 -33 -179 -50
-275 -17 -96 -39 -220 -50 -275 -10 -55 -33 -179 -50 -275 -17 -96 -42 -233
-55 -305 -95 -511 -155 -850 -155 -880 0 -14 -9 -34 -20 -45 -18 -18 -33 -20
-164 -20 l-143 0 -51 68 c-117 157 -317 289 -519 343 -111 30 -310 37 -426 15
-240 -45 -452 -178 -598 -374 l-40 -52 -493 0 -493 0 -26 39 c-74 112 -216
231 -364 305 -224 113 -532 127 -767 37 -165 -63 -325 -183 -432 -323 l-45
-58 -134 0 c-143 0 -182 9 -190 44 -3 12 -9 42 -15 67 -5 25 -41 149 -80 275
-39 126 -86 279 -105 339 -118 385 -167 542 -195 635 -18 58 -63 206 -102 330
-38 124 -82 268 -98 320 -16 52 -63 205 -105 340 -42 135 -89 288 -105 340
-16 52 -59 192 -95 310 -36 118 -81 265 -100 325 -18 61 -65 211 -103 335 -39
124 -89 288 -112 365 -24 77 -45 146 -47 153 -7 17 6823 18 6862 0z m-4330
-4153 c249 -63 424 -270 442 -520 18 -272 -184 -533 -455 -586 -227 -44 -465
59 -589 253 -86 136 -108 330 -55 484 49 140 147 254 276 318 129 65 258 82
381 51z m2620 0 c193 -49 343 -186 412 -375 23 -64 27 -90 26 -180 0 -90 -4
-116 -28 -180 -144 -388 -617 -507 -918 -230 -72 67 -118 139 -154 242 -21 60
-25 91 -25 173 0 111 20 185 75 285 67 120 218 231 359 266 73 17 182 17 253
-1z"/>
<path d="M5210 9319 c-32 -14 -114 -89 -290 -265 l-245 -244 -95 96 c-110 110
-148 134 -220 134 -117 0 -202 -84 -202 -200 0 -84 19 -110 271 -361 131 -132
242 -239 247 -239 17 0 782 775 799 809 13 25 16 52 13 102 -3 58 -8 74 -34
106 -64 78 -156 102 -244 62z"/>
<path d="M5820 8830 l0 -200 1015 0 1015 0 0 200 0 200 -1015 0 -1015 0 0
-200z"/>
<path d="M5203 7724 c-18 -9 -144 -126 -281 -259 l-249 -244 -84 85 c-104 104
-148 128 -229 122 -78 -6 -131 -42 -166 -115 -22 -44 -26 -62 -21 -103 3 -27
13 -62 21 -77 8 -15 121 -134 251 -263 l237 -235 388 392 c213 216 395 408
404 427 9 19 16 59 16 93 0 69 -29 123 -87 163 -46 32 -151 39 -200 14z"/>
<path d="M5820 7235 l0 -205 1015 0 1015 0 -2 203 -3 202 -1012 3 -1013 2 0
-205z"/>
<path d="M4005 4901 c-82 -20 -136 -72 -155 -150 -24 -102 39 -213 137 -240
53 -15 4403 -15 4456 0 49 13 105 63 128 114 52 113 -17 248 -141 274 -58 13
-4373 14 -4425 2z"/>
<path d="M4145 3921 c-157 -72 -153 -299 7 -366 33 -13 258 -15 2067 -15 1407
0 2038 3 2058 11 35 13 90 64 110 104 34 65 11 176 -49 232 -60 57 80 53
-2125 53 -1950 0 -2030 -1 -2068 -19z"/>
<path d="M4450 2968 c-87 -25 -140 -99 -140 -196 0 -74 38 -140 102 -174 l43
-23 1790 -3 c1315 -2 1804 0 1843 8 179 39 221 269 67 365 l-48 30 -1811 2
c-1183 1 -1823 -2 -1846 -9z"/>
</g>
</svg>
