<?xml version="1.0" standalone="no"?>
<!DOCTYPE svg PUBLIC "-//W3C//DTD SVG 20010904//EN"
 "http://www.w3.org/TR/2001/REC-SVG-20010904/DTD/svg10.dtd">
<svg version="1.0" xmlns="http://www.w3.org/2000/svg"
 width="65.000000pt" height="65.000000pt" viewBox="0 0 65.000000 65.000000"
 preserveAspectRatio="xMidYMid meet">
<metadata>
Created by potrace 1.10, written by Peter Selinger 2001-2011
</metadata>
<g transform="translate(0.000000,65.000000) scale(0.100000,-0.100000)"
fill="#000000" stroke="none">
<path d="M253 640 c-94 -20 -184 -94 -224 -185 -32 -70 -32 -190 0 -260 42
-95 138 -171 230 -182 28 -3 51 -3 51 1 0 4 -33 22 -73 40 -77 36 -110 62 -86
70 8 3 31 10 51 16 38 12 88 60 88 86 0 8 -11 37 -25 65 -23 44 -25 57 -19
111 11 98 70 136 130 84 24 -20 28 -33 32 -88 4 -57 1 -70 -22 -106 -14 -23
-26 -52 -26 -65 0 -32 42 -73 88 -87 21 -6 43 -13 51 -16 23 -7 -4 -29 -87
-71 l-77 -38 37 -3 c82 -7 206 84 249 181 31 72 31 191 0 263 -27 62 -100 136
-161 163 -54 23 -149 33 -207 21z m202 -55 c102 -50 160 -143 159 -260 0 -83
-35 -179 -63 -171 -9 3 -44 12 -79 22 -84 23 -91 38 -47 105 32 49 34 55 28
118 -6 77 -20 102 -71 135 -50 33 -92 43 -92 22 0 -8 -13 -22 -30 -31 -38 -20
-50 -43 -50 -99 0 -25 -4 -48 -10 -51 -18 -11 -11 -39 24 -90 45 -67 36 -87
-48 -110 -33 -9 -68 -18 -77 -21 -12 -3 -22 9 -38 45 -29 68 -36 129 -21 189
44 187 243 282 415 197z"/>
</g>
</svg>
