<?xml version="1.0" standalone="no"?>
<!DOCTYPE svg PUBLIC "-//W3C//DTD SVG 20010904//EN"
 "http://www.w3.org/TR/2001/REC-SVG-20010904/DTD/svg10.dtd">
<svg version="1.0" xmlns="http://www.w3.org/2000/svg"
 width="65.000000pt" height="65.000000pt" viewBox="0 0 65.000000 65.000000"
 preserveAspectRatio="xMidYMid meet">
<metadata>
Created by potrace 1.10, written by Peter Selinger 2001-2011
</metadata>
<g transform="translate(0.000000,65.000000) scale(0.100000,-0.100000)"
fill="#000000" stroke="none">
<path d="M335 603 c-45 -11 -31 -19 28 -15 60 4 65 3 95 -28 26 -25 32 -40 32
-73 0 -56 -38 -134 -84 -175 -47 -41 -59 -41 -40 3 7 19 14 47 14 63 0 37 -38
94 -71 106 -34 12 -84 0 -71 -17 5 -7 13 -34 17 -61 7 -50 40 -96 70 -96 26 0
16 29 -17 51 -33 21 -33 21 -5 15 l28 -7 -16 30 c-8 16 -19 33 -25 36 -5 3
-10 12 -10 18 0 7 12 -1 25 -16 19 -22 25 -24 25 -11 0 10 2 15 5 12 4 -3 8
-42 10 -87 3 -77 2 -81 -18 -82 -53 -4 -74 2 -96 27 -20 24 -23 35 -19 95 4
77 -3 80 -26 12 -43 -127 13 -223 132 -223 86 0 159 52 203 143 77 164 29 289
-110 286 -31 -1 -65 -3 -76 -6z m165 -243 c0 -5 -4 -10 -10 -10 -5 0 -10 -5
-10 -11 0 -5 5 -7 11 -3 22 13 -26 -52 -68 -93 -40 -39 -49 -43 -94 -43 -61 0
-104 21 -124 61 l-16 30 40 -21 c22 -11 51 -20 65 -20 28 0 85 24 128 53 16
10 32 15 38 12 6 -3 10 4 10 18 0 13 3 27 7 30 10 10 23 8 23 -3z"/>
<path d="M248 547 c-68 -41 -109 -114 -107 -194 l1 -48 14 60 c26 106 95 175
177 175 49 0 71 -28 64 -81 -5 -39 -5 -40 14 -23 10 9 22 32 25 51 6 30 2 39
-22 61 -15 15 -21 18 -11 6 16 -19 23 -44 12 -44 -3 0 -14 9 -25 20 -11 11
-29 20 -39 20 -11 0 -23 5 -26 10 -10 16 -37 12 -77 -13z"/>
<path d="M60 81 c0 -26 5 -41 16 -45 24 -9 44 -7 44 4 0 6 -9 10 -20 10 -11 0
-20 5 -20 10 0 6 7 10 15 10 8 0 15 5 15 10 0 6 -7 10 -15 10 -8 0 -15 5 -15
10 0 26 36 3 49 -33 10 -24 31 -38 31 -19 0 4 3 18 6 32 6 23 5 24 -8 7 -13
-18 -15 -17 -28 7 -9 19 -22 26 -42 26 -26 0 -28 -3 -28 -39z"/>
<path d="M292 78 c2 -32 7 -42 23 -44 10 -2 25 2 31 7 8 6 14 6 18 0 12 -18
46 0 46 25 0 28 -26 43 -43 24 -10 -10 -8 -12 8 -6 16 5 15 2 -5 -14 -26 -21
-70 -27 -70 -10 0 6 9 10 20 10 11 0 20 5 20 10 0 6 -9 10 -21 10 -12 0 -17 4
-14 11 4 6 13 8 21 5 7 -3 16 -1 19 4 4 6 -8 10 -25 10 -30 0 -31 -1 -28 -42z"/>
<path d="M469 110 c-4 -50 11 -94 25 -71 4 6 2 11 -4 11 -8 0 -10 9 -7 23 4
12 2 29 -3 37 -9 13 -10 13 -11 0z"/>
<path d="M507 83 c7 -44 13 -56 13 -25 0 12 5 22 10 22 6 0 10 -9 10 -19 0
-11 5 -23 10 -26 6 -4 10 7 10 25 0 23 -5 33 -20 37 -11 3 -20 9 -20 14 0 5
-4 9 -9 9 -6 0 -7 -17 -4 -37z"/>
<path d="M187 94 c-24 -25 8 -75 36 -57 7 4 2 10 -13 14 -25 7 -25 7 -2 8 17
1 22 6 20 18 -3 19 -29 29 -41 17z"/>
<path d="M247 93 c-11 -10 -8 -51 3 -58 6 -4 10 5 10 19 0 14 5 26 10 26 6 0
10 5 10 10 0 11 -23 14 -33 3z"/>
<path d="M421 63 c1 -22 3 -29 6 -18 3 11 9 24 14 30 14 14 11 25 -6 25 -11 0
-15 -10 -14 -37z"/>
</g>
</svg>
